<?xml version="1.0" encoding="utf-8"?>
<!-- Generator: Adobe Illustrator 15.0.2, SVG Export Plug-In  -->
<!DOCTYPE svg PUBLIC "-//W3C//DTD SVG 1.1//EN" "http://www.w3.org/Graphics/SVG/1.1/DTD/svg11.dtd" [
	<!ENTITY ns_flows "http://ns.adobe.com/Flows/1.0/">
]>
<svg version="1.1"
	 xmlns="http://www.w3.org/2000/svg" xmlns:xlink="http://www.w3.org/1999/xlink" xmlns:a="http://ns.adobe.com/AdobeSVGViewerExtensions/3.0/"
	 x="0px" y="0px" width="64px" height="64px" viewBox="-0.008 -5.167 64 64"
	 overflow="visible" enable-background="new -0.008 -5.167 64 64" xml:space="preserve">
<defs>
</defs>
<path fill="#E25027" d="M63.847,20.803l-1.072-5.427c-0.086-0.424-0.373-0.764-0.712-0.834l-3.153-0.645
	c0.733,1.491,1.289,3.099,1.616,4.812c0.324,1.674,0.407,3.338,0.291,4.963l2.689-1.825C63.793,21.653,63.931,21.227,63.847,20.803z
	"/>
<path fill-rule="evenodd" clip-rule="evenodd" fill="#E25027" d="M60.583,18.424C58.441,8.055,48.297,1.386,37.927,3.528
	C27.557,5.67,20.888,15.814,23.03,26.184c1.877,9.088,9.901,15.333,18.835,15.296c-6.343-1.04-11.69-5.872-13.069-12.541
	c-1.786-8.646,3.774-17.104,12.422-18.891c8.647-1.787,17.105,3.774,18.891,12.421c0.32,1.549,0.4,3.09,0.273,4.59
	C61.086,24.32,61.194,21.381,60.583,18.424z"/>
<path fill="#E25027" d="M22.781,20.617l-3.2,2.114c-0.292,0.192-0.43,0.612-0.351,1.039l1.029,5.434
	c0.081,0.428,0.368,0.77,0.708,0.845l3.761,0.813c-0.766-1.527-1.343-3.184-1.683-4.945C22.702,24.127,22.625,22.346,22.781,20.617z
	"/>
<path fill="#E25027" d="M43.158,3.283l-1.963-2.915C41,0.08,40.576-0.059,40.15,0.023l-5.428,1.053
	c-0.427,0.083-0.766,0.369-0.838,0.709l-0.728,3.509c1.553-0.787,3.235-1.376,5.027-1.723C39.861,3.25,41.53,3.166,43.158,3.283z"/>
<path fill="#E25027" d="M29.404,7.799l-3.596-0.702c-0.34-0.066-0.74,0.136-0.981,0.494l-3.094,4.585
	c-0.243,0.361-0.281,0.804-0.089,1.093l2.021,3.085C24.76,13.035,26.748,10.07,29.404,7.799z"/>
<path fill="#E25027" d="M27.085,34.466l-0.746,3.716c-0.068,0.342,0.132,0.738,0.493,0.982l4.58,3.099
	c0.36,0.244,0.804,0.28,1.095,0.093l3.083-2C32.273,39.215,29.326,37.173,27.085,34.466z"/>
<path fill="#E25027" d="M56.131,9.745l0.648-3.225c0.069-0.339-0.133-0.738-0.493-0.98l-4.58-3.099
	c-0.359-0.242-0.804-0.28-1.095-0.093l-2.855,1.851C50.991,5.267,53.885,7.186,56.131,9.745z"/>
<path fill="#EB8467" d="M54.185,26.398c0.043-3.745-3.049-5.906-5.956-6.68c-0.842-0.224-1.694-0.32-2.533-0.286
	c-3.545,0.146-6.459,2.583-7.422,6.21c-0.602,2.255-0.347,4.534,0.713,6.416c1.05,1.861,2.811,3.202,4.957,3.771
	c0.9,0.239,1.806,0.343,2.693,0.308c1.378-0.058,3.269-0.483,4.889-2.097l-7.994-2.128c-0.353-0.093-0.563-0.456-0.469-0.807
	l0.914-3.438c0.094-0.353,0.457-0.562,0.809-0.468l12.958,3.447c0.289-1.085,0.426-2.218,0.399-3.375l-3.337-0.207
	C54.453,27.043,54.18,26.751,54.185,26.398z"/>
<path fill="#669EB2" d="M26.162,41.49l-2.023-1.377c-0.002-0.028-0.002-0.059-0.005-0.088c-0.066-0.686-0.198-1.359-0.386-2.01
	c-0.007-0.027-0.019-0.056-0.026-0.083l1.377-2.074c0.116-0.172,0.096-0.438-0.045-0.653l-1.796-2.753
	c-0.141-0.214-0.374-0.337-0.576-0.299l-2.435,0.46c-0.023-0.02-0.043-0.039-0.065-0.057c-0.503-0.418-1.044-0.791-1.62-1.116
	c-0.025-0.014-0.052-0.025-0.076-0.039l-0.495-2.48c-0.041-0.203-0.24-0.377-0.492-0.428l-3.202-0.651
	c-0.25-0.051-0.501,0.029-0.618,0.201l-1.382,2.05c-0.028,0.001-0.057,0.002-0.085,0.005c-0.686,0.064-1.359,0.195-2.01,0.384
	c-0.029,0.009-0.057,0.021-0.086,0.028l-2.05-1.369c-0.172-0.114-0.434-0.094-0.648,0.05l-2.729,1.828
	c-0.214,0.145-0.337,0.38-0.298,0.582l0.444,2.381c-0.019,0.021-0.041,0.042-0.058,0.064c-0.449,0.541-0.85,1.127-1.192,1.753
	c-0.015,0.026-0.025,0.052-0.04,0.077l-2.428,0.481c-0.202,0.04-0.375,0.241-0.428,0.494l-0.673,3.236
	c-0.052,0.252,0.028,0.507,0.196,0.624l2.032,1.422c0.002,0.029,0.002,0.058,0.005,0.088c0.064,0.704,0.197,1.392,0.39,2.06
	c0.007,0.027,0.019,0.057,0.026,0.084l-1.37,2.061C1.18,46.597,1.2,46.864,1.341,47.079l1.796,2.753
	c0.14,0.214,0.374,0.337,0.576,0.3l2.412-0.455c0.023,0.02,0.043,0.038,0.065,0.059c0.542,0.45,1.129,0.852,1.758,1.193
	c0.025,0.015,0.052,0.025,0.077,0.04l0.465,2.409c0.041,0.203,0.24,0.376,0.491,0.426l3.2,0.656
	c0.252,0.052,0.504-0.031,0.622-0.201l1.405-2.058c0.028-0.003,0.06-0.003,0.087-0.006c0.462-0.05,0.917-0.129,1.365-0.237
	c-0.653,0.068-1.322,0.068-2.001-0.027c-4.47-0.635-7.579-4.772-6.943-9.242c0.635-4.469,4.772-7.578,9.242-6.943
	c4.469,0.636,7.578,4.772,6.944,9.242c-0.146,1.026-0.484,1.979-0.963,2.833c0.329-0.438,0.635-0.893,0.9-1.381
	c0.013-0.025,0.025-0.053,0.039-0.08l2.412-0.508c0.2-0.043,0.373-0.246,0.423-0.499l0.646-3.24
	C26.411,41.857,26.332,41.604,26.162,41.49z"/>
</svg>
